<?xml version="1.0" encoding="UTF-8" standalone="no"?>
<!-- Created with Inkscape (http://www.inkscape.org/) -->

<svg
   width="15.999999"
   height="15.999999"
   viewBox="0 0 4.233333 4.233333"
   version="1.1"
   id="svg1"
   xmlns="http://www.w3.org/2000/svg"
   xmlns:svg="http://www.w3.org/2000/svg">
  <defs
     id="defs1" />
  <g
     id="layer1">
    <path
       id="use8-1"
       style="fill:#e91e63;fill-opacity:1;stroke:#ffffff;stroke-width:0.105833;stroke-dasharray:none;stroke-opacity:1"
       d="M 3.8829418,0.51070791 C 4.0249743,0.62143311 3.6379238,0.75833811 2.920218,0.83504891 2.3496256,0.89603181 1.5555624,1.0272563 1.0837669,0.99250931 1.2394816,1.439221 1.3180077,2.2405931 1.4068368,2.8075181 1.5345288,3.6224866 1.4749567,4.0412862 1.2746287,3.7430202 1.0743002,3.4447548 0.80825313,2.5423582 0.68037423,1.7271092 l -3.826e-4,-0.00291 c -0.1019871,-0.6516954 -0.1552029,-0.96398859 -0.0054,-1.04563569 0.00125,-0.00519 0.0018,-0.00992 0.00357,-0.014844 0.055554,-0.1525098 0.37148857,-0.1814079 1.00686837,-0.2494313 l 0.00291,-3.827e-4 c 0.8205673,-0.087584 1.76106,-0.064221 2.101022,0.052053 0.042486,0.014537 0.07369,0.028932 0.09398,0.0447494 z" />
  </g>
</svg>
