<?xml version="1.0" encoding="UTF-8" standalone="no"?>
<!-- Created with Inkscape (http://www.inkscape.org/) -->

<svg
   width="15.999999"
   height="15.999999"
   viewBox="0 0 4.233333 4.233333"
   version="1.1"
   id="svg1"
   xmlns="http://www.w3.org/2000/svg"
   xmlns:svg="http://www.w3.org/2000/svg">
  <defs
     id="defs1" />
  <g
     id="layer1">
    <path
       id="use8-1"
       style="fill:#e91e63;fill-opacity:1;stroke:#ffffff;stroke-width:0.105833;stroke-dasharray:none;stroke-opacity:1"
       d="M 0.61063311,0.5107079 C 0.4686006,0.6214331 0.85565112,0.75833808 1.5733569,0.83504886 2.1439493,0.89603178 2.9380125,1.0272563 3.409808,0.99250928 3.2540933,1.439221 3.1755672,2.2405931 3.0867381,2.8075181 2.9590461,3.6224866 3.0186182,4.0412862 3.2189462,3.7430202 3.4192747,3.4447548 3.6853218,2.5423582 3.8132007,1.7271092 l 3.826e-4,-0.00291 c 0.1019871,-0.6516954 0.1552029,-0.96398865 0.0054,-1.04563574 -0.00125,-0.005192 -0.0018,-0.009923 -0.00357,-0.0148438 C 3.7598593,0.51120991 3.4439247,0.48231179 2.8085449,0.41428842 l -0.00291,-3.827e-4 c -0.8205673,-0.0875836 -1.76106,-0.0642211 -2.10102198,0.0520526 -0.0424865,0.0145365 -0.0736901,0.0289318 -0.0939798,0.0447496 z" />
  </g>
</svg>
